<?xml version="1.0" standalone="no"?>
<!DOCTYPE svg PUBLIC "-//W3C//DTD SVG 20010904//EN"
 "http://www.w3.org/TR/2001/REC-SVG-20010904/DTD/svg10.dtd">
<svg version="1.0" xmlns="http://www.w3.org/2000/svg"
 width="50.000000pt" height="50.000000pt" viewBox="0 0 50.000000 50.000000"
 preserveAspectRatio="xMidYMid meet">

<g transform="translate(0.000000,50.000000) scale(0.100000,-0.100000)"
fill="#fff" stroke="none">
<path d="M13 454 c-4 -10 11 -32 42 -64 l48 -49 -49 -3 -49 -3 -3 -40 c-2 -25
2 -43 10 -50 8 -5 22 -39 32 -75 10 -36 24 -80 32 -97 l13 -33 161 0 161 0 13
33 c8 17 22 61 32 97 10 36 24 70 32 75 8 7 12 25 10 50 l-3 40 -49 3 -49 3
48 49 c31 32 46 54 42 64 -11 29 -38 17 -106 -49 l-68 -65 -63 0 -63 0 -68 65
c-68 66 -95 78 -106 49z m102 -74 c38 -38 66 -73 62 -77 -8 -7 -147 125 -147
139 0 18 19 4 85 -62z m355 62 c0 -14 -139 -146 -147 -139 -4 4 24 39 62 77
66 66 85 80 85 62z m-330 -143 c30 -23 60 -20 60 6 0 11 12 15 50 15 38 0 50
-4 50 -15 0 -26 30 -29 60 -6 20 14 44 21 75 21 43 0 45 -1 45 -30 l0 -30
-230 0 -230 0 0 30 c0 29 2 30 45 30 31 0 55 -7 75 -21z m15 -136 c0 -73 1
-78 23 -81 21 -3 22 -1 22 77 0 58 4 81 13 81 8 0 12 -22 12 -77 0 -77 0 -78
25 -78 25 0 25 1 25 78 0 55 4 77 13 77 8 0 12 -23 12 -81 0 -78 1 -80 23 -77
21 3 22 8 22 81 l0 77 53 0 c60 0 59 4 28 -100 l-22 -75 -154 0 -154 0 -22 75
c-31 104 -32 100 29 100 l52 0 0 -77z m22 -35 c-2 -18 -4 -4 -4 32 0 36 2 50
4 33 2 -18 2 -48 0 -65z m83 32 c0 -33 -4 -60 -10 -60 -6 0 -10 27 -10 60 0
33 4 60 10 60 6 0 10 -27 10 -60z m67 -32 c-2 -18 -4 -4 -4 32 0 36 2 50 4 33
2 -18 2 -48 0 -65z"/>
</g>
</svg>
