<svg width="33" height="33" viewBox="0 0 33 33" fill="none" xmlns="http://www.w3.org/2000/svg">
<circle cx="16.5" cy="16.5" r="16.5" fill="black"/>
<path d="M17.22 6.21753H17.2152C11.9411 6.21753 7.65234 10.5075 7.65234 15.7827C7.65234 17.8751 8.32669 19.8145 9.47332 21.3892L8.28126 24.9426L11.9579 23.7673C13.4704 24.7693 15.2746 25.348 17.22 25.348C22.494 25.348 26.7828 21.0568 26.7828 15.7827C26.7828 10.5087 22.494 6.21753 17.22 6.21753ZM22.7857 19.7248C22.555 20.3764 21.6391 20.9169 20.9085 21.0747C20.4088 21.1811 19.7559 21.266 17.5583 20.3549C14.7473 19.1904 12.9371 16.3339 12.796 16.1486C12.6609 15.9633 11.6602 14.6361 11.6602 13.2635C11.6602 11.8909 12.3572 11.2225 12.6382 10.9356C12.869 10.7 13.2504 10.5924 13.6163 10.5924C13.7346 10.5924 13.841 10.5984 13.9367 10.6032C14.2177 10.6151 14.3588 10.6319 14.5441 11.0755C14.7748 11.6314 15.3368 13.0041 15.4038 13.1451C15.4719 13.2862 15.5401 13.4775 15.4444 13.6629C15.3547 13.8542 15.2758 13.9391 15.1347 14.1017C14.9936 14.2643 14.8597 14.3886 14.7186 14.5632C14.5895 14.715 14.4436 14.8776 14.6063 15.1586C14.7689 15.4336 15.3308 16.3507 16.1582 17.0872C17.2259 18.0377 18.0916 18.3414 18.4013 18.4706C18.632 18.5662 18.907 18.5435 19.0756 18.3642C19.2896 18.1334 19.5539 17.7508 19.8229 17.3742C20.0142 17.1039 20.2557 17.0705 20.5092 17.1661C20.7675 17.2558 22.1341 17.9313 22.4151 18.0712C22.696 18.2123 22.8814 18.2793 22.9495 18.3976C23.0165 18.516 23.0165 19.072 22.7857 19.7248Z" fill="white"/>
</svg>
